<svg xmlns="http://www.w3.org/2000/svg" viewBox="0 0 488 488">
  <path d="M478 316.7H335.5V244c0-5.5-4.5-10-10-10H162.4c-5.5 0-10 4.5-10 10v72.7H10c-5.5 0-10 4.5-10 10v92.8c0 5.5 4.5 10 10 10h468c5.5 0 10-4.5 10-10v-92.8c0-5.5-4.5-10-10-10zm-10 92.8H20v-72.8h142.5c5.5 0 10-4.5 10-10V254h143.1v72.7c0 5.5 4.5 10 10 10H468v72.8zM177 119.9l31.5 22.8-11.5 36.4c-1.3 4.1.1 8.6 3.6 11.1s8.2 2.6 11.7.1l31.6-22.2 31.6 22.2c1.8 1.2 3.8 1.8 5.8 1.8 2.1 0 4.2-.6 5.9-1.9 3.4-2.5 4.9-7 3.6-11.1l-11.5-36.4 31.5-22.8c3.5-2.6 4.9-7.1 3.6-11.2a10 10 0 0 0-9.5-6.9h-39.3l-12.2-36.5a10 10 0 0 0-9.5-6.8 10 10 0 0 0-9.5 6.8l-12.2 36.5h-39.3a10 10 0 0 0-9.5 6.9c-1.4 4.1.1 8.7 3.6 11.2zm52.6 1.9a10 10 0 0 0 9.5-6.8l5-14.9 5 14.9a10 10 0 0 0 9.5 6.8h15.6l-12.4 9c-3.5 2.5-5 7-3.7 11.1l4.8 15-13.1-9.2c-1.8-1.2-3.8-1.8-5.8-1.8s-4 .6-5.6 1.8l-13.1 9.2 4.8-15c1.3-4.1-.2-8.6-3.7-11.1l-12.4-9h15.6z"/>
</svg>
