<?xml version="1.0" encoding="utf-8"?>
<!-- Generator: Adobe Illustrator 19.1.0, SVG Export Plug-In . SVG Version: 6.00 Build 0)  -->
<!DOCTYPE svg PUBLIC "-//W3C//DTD SVG 1.1//EN" "http://www.w3.org/Graphics/SVG/1.1/DTD/svg11.dtd">
<svg version="1.1" id="Layer_1" xmlns="http://www.w3.org/2000/svg" xmlns:xlink="http://www.w3.org/1999/xlink" x="0px" y="0px"
	 viewBox="0 0 800 600" style="enable-background:new 0 0 800 600;" xml:space="preserve">
<g>
	<path d="M139.6,282.3c-0.6,1.5-1.3,2.9-1.9,4.4c-0.6,1.5-1.2,2.9-1.6,4.4c-1.1,2.9-1.2,5.9-0.5,8.9c0.8,3,2.1,5.9,3.9,8.6
		c1.8,2.7,3.9,5.2,6.3,7.6c2.3,2.3,4.5,4.1,6.5,5.3c2.5,1.4,5,0.9,7.4-1.5c2.4-2.3,4.1-4.5,5.1-6.5c3.1-5.7,5.5-11.6,7.4-17.6
		c1.9-6,3.4-12.1,4.6-18.5c1.4-6.1,2.1-12.4,2.1-18.7c-0.2-8.6-1.4-15.9-3.9-22.1c-2.4-6.1-5.4-11.4-8.9-15.7
		c-3.7-4.5-7.7-8.2-11.9-11c-4.2-2.8-8.3-4.8-12.1-6.2c-4.4-1.7-8.7-2.6-13.1-2.8c-7.2,0.1-14.3,1.5-21.3,4.1c-6,2.2-12,6-18,11.3
		c-6.1,5.4-11.1,13.2-15.2,23.4c-4.1,10.2-6.2,20-6.4,29.3c-0.2,9.3,1.1,18,3.9,26c2.8,8,6.7,15.4,11.9,22.3
		c5.2,6.9,10.9,13.2,17.1,18.9c4.9,4.8,9.6,9.7,14.2,14.8c3.7,4.5,7.4,9.5,11.1,14.8c3.7,5.4,6.3,10.7,7.9,16.1
		c0.6,2.2,1,4.7,1.2,7.8c0.2,3,0.1,6.1-0.2,9.4c-0.3,3.2-1,6.5-2,9.7c-1,3.2-2.4,6-4.3,8.4c-2,2.8-4.9,5.5-8.8,8
		c-3.9,2.5-9,4.2-15.4,5.1c-4.6,0.6-8.7,0.5-12.3-0.2c-3.5-0.7-6.5-1.7-8.8-3c-2.4-1.3-4.2-2.5-5.4-3.6c-1.2-1.1-1.8-1.8-1.9-2
		c-3-2.6-5.1-5.7-6.4-9.2c-1.3-3.5-2.1-6.8-2.4-9.9c-0.4-3.8-0.4-7.6,0-11.5c0.4-3,0.9-5.8,1.6-8.3c0.7-2.5,1.4-4.7,2.2-6.7
		c0.7-2.2,1.7-4,2.8-5.6c0.5-1,1-2,1.5-3c0.3-1,0.6-1.9,1-2.9c0.4-1,0.5-2,0.3-3.1c-0.5-4-2.9-6.1-7.2-6.2c-3.2-0.1-6.1,0.2-8.7,0.9
		c-2.6,0.7-4.8,1.5-6.7,2.5c-2.3,1.3-4.3,2.7-6.1,4.1c-1.8,1.4-3.3,3-4.6,4.6c-1.3,1.6-2.5,3.2-3.6,4.7l-0.3,0.1
		c-0.1,0.5-0.4,1-0.8,1.5c-3.8,6.6-5.5,13.5-5.1,20.9c0.4,7.4,2.2,14.8,5.3,22.2c2,4.9,4.6,9.4,7.8,13.7c3.2,4.3,7.4,8,12.3,11.2
		c5,3.2,10.7,5.7,17.3,7.5c6.5,1.8,14.1,2.4,22.5,1.8c12.1-0.8,22-2.6,29.9-5.6c9.1-3.4,16-8.1,20.6-14c4.6-5.9,7.9-11.9,9.8-17.8
		c1.9-6,2.7-11.6,2.5-16.7c-0.2-5.2-0.7-8.8-1.3-11c-1.6-6.3-4.5-13.3-8.8-21.2c-4.3-7.8-8.9-15.1-13.7-21.7
		c-5.5-7.9-11.5-15.7-18.1-23.6c-5.8-7.1-10.2-14.1-13.4-20.9c-3.1-6.8-5.3-13.2-6.6-19.2c-1.3-6-1.7-11.7-1.3-17.1
		c0.4-5.4,1.1-10.4,2.1-15.1c1.1-5.2,2.9-9.1,5.4-11.6c2.5-2.6,5.1-4.5,7.8-5.6c3.1-1.5,6.5-2.1,10.2-1.8c6.2,0.7,11,2.9,14.4,6.6
		c3.4,3.7,5.5,8.2,6.4,13.5c0.9,5.3,0.9,10.9-0.2,17C143.8,270.8,142,276.7,139.6,282.3z M633.3,223.8c-2.5-1.6-4.6-1.8-6.2-0.6
		c-0.8,0.6-1.2,1.5-1.2,2.6c-1.1,4-2.8,10.2-5,18.5c-2.3,8.3-5,17.4-8.3,27.3c-3.2,9.9-6.9,19.7-10.9,29.6
		c-4,9.9-8.2,18.5-12.6,25.8c-1.3-0.9-2.2-2.4-2.8-4.6c-0.5-1.3-0.7-2.9-0.8-4.8c-0.1-1.9-0.2-3.9-0.2-5.9c0-2,0-4,0.2-5.8
		c0.1-1.8,0.3-3.2,0.6-4.2c0.6-5.3,1.3-10.3,1.9-15.1c0.6-4.7,1.3-9.3,2.2-13.8c0.4-1.4,0.8-3.2,1.3-5.3c0.4-2.1,0.9-4.1,1.5-6
		c0.6-1.9,1.1-4.1,1.7-6.6c0.6-2.5,1.1-4,1.4-4.5c0-0.2,0-0.4,0.1-0.5c0.1-0.1,0.1-0.3,0.1-0.5c1-3.1,1.4-5.8,1-8
		c-0.2-0.9-0.4-1.7-0.8-2.4c-0.4-0.7-0.7-1.3-1-1.7c-0.6-0.6-1-1-1.2-1.1c-3.1-2.4-6.4-4.1-9.9-5.2c-3.5-1.1-6.1-1.7-8-1.8
		c-1.4-0.2-2.5,0.2-3.3,1.3c-0.8,1.1-1.4,2.1-1.7,3c-0.3,1-0.4,1.5-0.4,1.8c-0.2,0.3-0.3,0.5-0.2,0.7c-0.5,2.6-1,5.3-1.6,8.1
		c-0.7,2.6-1.3,5.6-2,9c-0.6,3.4-1.2,6.9-1.7,10.6c-0.3,1-0.4,1.8-0.4,2.6c0,0.8-0.1,1.5-0.4,2.3c-0.3,2.1-0.7,4.7-1.2,7.7
		c-0.5,3-0.9,6-1.3,9.1c-0.6,2.8-1.6,6.9-2.9,12.2c-1.3,5.3-3,10.7-5,16.1c-2,5.4-4.3,10.2-7,14.3c-2.7,4.1-5.5,6.2-8.4,6.2
		c-0.7,0.1-1.4-0.1-2.1-0.6c-0.5-0.4-1.2-0.9-2-1.5c-0.8-0.7-1.5-1.8-2-3.6c-0.9-2.3-1.2-5.3-0.9-9c0.3-3.7,0.5-6.4,0.6-8.2
		c0.6-5.3,1.3-10.3,1.9-15.1c0.6-4.7,1.5-9.4,2.5-13.8c0.2-1.4,0.6-3.2,1.1-5.3c0.5-2.1,1-4.1,1.3-6c0.6-1.9,1.2-4.1,1.9-6.6
		c0.7-2.5,1.1-4,1.2-4.5c0.2-0.3,0.2-0.6,0.2-1c0.8-1.7,1.2-3.2,1.2-4.5c0-1.2-0.1-2.4-0.3-3.5c-0.2-0.9-0.4-1.7-0.8-2.4
		c-0.4-0.7-0.7-1.3-1-1.7c-0.3-0.6-0.6-1-0.9-1.2c-3.4-2.3-6.7-4.1-10.1-5.2c-3.4-1.1-6-1.7-7.8-1.9c-1.6-0.2-2.8,0.3-3.5,1.3
		c-0.7,1-1.3,2-1.8,3c-0.3,1-0.4,1.5-0.4,1.8c-0.2,0.3-0.3,0.5-0.2,0.7c-0.5,2.6-1,5.3-1.6,8.1c-0.7,2.6-1.3,5.6-2,9
		c-0.6,3.4-1.2,6.9-1.7,10.6c0.1,1.6-0.2,3.2-0.8,4.9c-0.2,1.9-0.5,4.1-0.9,6.5c-3.2,2.6-6.6,4.8-10.4,6.7c0.3-3.7,0.3-8.1,0-13.2
		c-0.2-5.2-1-10-2.4-14.5c-1.4-4.5-3.6-8.3-6.6-11.4c-3-3.1-7-4.5-12-4.3c-3.2,0.1-6,0.9-8.5,2.5c-2.6,1.6-4.7,3.7-6.5,6.2
		c-6.3-2.5-11.8-2.2-16.5,0.9c-4.7,3.1-8.5,6.9-11.5,11.5c-3.6,5.4-6.6,11.9-9.1,19.6c-1.3,4.3-2.4,8.9-3.3,13.8
		c-0.8,4.2-1.5,9-1.9,14.4c-0.1,1.9-0.2,3.9-0.2,5.9c-0.7,2.3-1.6,5-2.7,8.2c-1.5,4.2-3.2,8.3-5.1,12.3c-1.9,4-4.1,7.3-6.6,10
		c-2.5,2.7-5,3.9-7.5,3.7c-1.9-0.3-3.2-1.7-4.1-4c-0.1-0.4-0.2-0.7-0.3-0.8c-0.1-0.1-0.2-0.2-0.3-0.5c-1.1-3.9-1.6-9.1-1.4-15.7
		c0.5-11.2,1.5-21.8,2.9-31.7c1.4-10,3.2-19.5,5.5-28.5c2.4-10.6,5.1-20.4,8.1-29.3c3-8.9,6-17,9.3-24.4c7.5-1.3,17.2-3,29.3-5.2
		c12.1-2.1,25.2-4.4,39.3-6.9c14.2-2.5,28.8-5.1,44.1-7.9c15.2-2.8,29.9-5.6,44-8.3c14.1-2.7,27.1-5.2,39.1-7.6
		c11.9-2.3,21.7-4.4,29.3-6.2c1.5-0.3,3.6-0.7,6.2-1.3c2.6-0.6,5.2-1.2,7.6-2c2.5-0.8,4.6-1.7,6.5-2.7c1.9-1,2.7-1.9,2.6-2.8
		c-0.2-0.9-0.8-1.5-1.9-1.9c-1.1-0.4-2.3-0.7-3.7-0.9c-1.4-0.2-2.8-0.3-4.3-0.3c-1.5,0-2.5,0.1-3.2,0.2c-7.7,1.1-17.7,2.6-29.8,4.4
		c-12.1,1.8-25.3,3.7-39.4,5.9c-14.1,2.1-28.8,4.3-44.2,6.5c-15.3,2.2-30.1,4.4-44.2,6.4c-14.1,2-27.1,3.9-39.1,5.6
		c-11.9,1.7-21.6,3-29.2,3.9c3.1-5.7,5.6-10.6,7.6-14.6c2-4,3.4-6.9,4.2-8.9c1.1-2.9,1.1-5.9-0.1-9c-1.1-3.1-2.7-5.9-4.9-8.5
		c-2.1-2.6-4.5-4.7-7.1-6.6c-2.6-1.8-4.6-3-6.1-3.7c-1.7-0.8-3.3-0.9-4.6-0.2c-1.4,0.7-2.5,1.6-3.4,2.6c-1.2,1.1-2.3,2.6-3.3,4.3
		c-1.8,3.7-3.7,8-5.5,12.9c-1.8,4.2-3.7,9.3-5.9,15.5c-2.2,6.2-4.6,13-7.1,20.6c-13.1,1.7-26,3.4-38.8,5.1
		c-12.8,1.7-25.8,3.6-39.1,5.5c-3.8,0.4-7.4,1.2-10.8,2.4c-3.4,1.2-6.4,2.8-8.8,4.8c-2.5,2-4.1,4.5-5,7.5c-0.8,3-0.6,6.4,0.8,10.2
		c0.3,0.6,0.8,1.2,1.3,1.8c0.9,1,2.5,1.3,4.9,0.8c14.9-2.8,29.7-5.5,44.4-8c14.7-2.5,29.5-5,44.5-7.7c-2.8,10-5.4,20.6-8,31.8
		c-2.6,11.2-4.9,23.2-6.9,36c-0.7,4-1.1,8-1.3,12.1c-0.5,3.7-0.8,7.9-0.8,12.5c-0.1,3.1,0,6.2,0.2,9.4c0,0.2-0.1,0.4-0.1,0.6
		c-0.9,2.7-2,6.1-3.4,10.3c-1.4,4.2-3.1,8.2-5.2,12.1c-2,3.9-4.2,7.2-6.6,10c-2.3,2.8-4.8,4-7.4,3.5c-2.3-0.3-3.8-1.8-4.5-4.6
		c-0.7-2.8-0.9-6.3-0.5-10.6c0.4-4.3,1.1-8.9,2.3-14c1.1-5.1,2.4-9.9,3.7-14.6c1.3-4.6,2.6-8.8,3.8-12.4c1.2-3.6,2.1-6.2,2.7-7.9
		c0.9-2.6,1.3-4.9,1.4-6.7c0-1.8-0.2-3.2-0.6-4.3c-0.5-1.3-1.2-2.3-2.2-3c-3.4-2.8-7-4.9-10.6-6.3c-3.6-1.4-6.5-2.2-8.6-2.6
		c-1.2-0.2-2.1,0-2.9,0.9c-0.8,0.8-1.4,1.7-1.9,2.7c-0.7,1-1.2,2.2-1.4,3.6c-0.3,1-0.6,1.9-0.9,2.9c-0.5,2.4-1.1,4.7-1.8,7.1
		c-1.2-2.7-2.8-5.2-4.8-7.3c-2.1-2.1-4.9-3.6-8.4-4.3c-4.2-0.8-8.9-0.5-13.9,1.1c-5,1.6-9.9,4.6-14.5,9.2c-4.6,4.6-9,10.7-13,18.6
		c-4,7.8-7.2,17.7-9.4,29.7c-0.3,1.6-0.6,3.1-0.8,4.7c-0.3,0.6-0.4,1.1-0.5,1.7c-0.7,2.6-1.7,5.8-3,9.7c-1.4,3.9-3,7.6-4.8,11.4
		c-0.2,0.3-0.8,1.4-1.8,3.4c-0.4,0.5-0.7,1-0.9,1.5c-0.3,0.5-0.6,1-0.9,1.5c-1.4,2.3-3.1,4.7-5,7.2c-1.9,2.5-4.2,4.8-6.9,7
		c-2.7,2.2-5.7,4-9,5.5c-3.4,1.5-7,2.4-11.1,2.6l-0.4-0.3l-0.3,0.1c-1.1,0.2-2.1,0.1-3.1-0.1c-4.4-0.8-7.4-2.9-8.9-6.2
		c-1.5-3.4-2.4-6.9-2.6-10.7c10.4-3.9,18.4-8.6,24.1-14.3c5.7-5.6,9.8-11.3,12.5-17c2.6-5.7,4.2-11.1,4.6-16.3
		c0.4-5.2,0.5-9.3,0.2-12.4c-0.1-1.8-0.3-3.3-0.6-4.6c-0.3-1.3-0.7-2.5-1.1-3.5c-1-3.2-2.6-6.2-4.8-8.8c-2.2-2.7-5.3-4.4-9.3-5.3
		c-4.2-0.8-8.9-0.5-13.9,1.1c-5,1.6-9.9,4.6-14.5,9.2c-4.6,4.6-9,10.7-13,18.6c-4,7.8-7.2,17.7-9.4,29.7c-1.6,8.7-2.4,16.4-2.4,23.2
		l0.1,0.3c0.1,4.5,0.7,8.9,1.8,13.3c1.1,4.3,3,8.2,5.6,11.6c2.9,3.8,6.9,6.7,11.9,8.8c5,2.1,11.6,2.8,19.9,2.3
		c3.4-0.1,6.3-0.7,8.9-1.6c8.7-2,15.9-6,21.5-12.1c5.6-6.1,10.2-12,13.7-17.9c0.7-1.3,1.2-2.3,1.6-3.2c0.4-0.9,0.8-1.7,1.1-2.4
		c0.3-0.7,0.6-1.3,0.9-1.9c1.1,4.6,2.6,8.4,4.7,11.3c2.9,4.1,6.4,6.8,10.6,8.1c4.2,1.3,8.3,1.7,12.3,1.2c5.6-0.5,11-3.5,16.2-9
		c5.3-5.5,9.7-12.5,13.4-21c0.8,5.7,2.4,10.6,4.8,14.4c2.4,3.9,5.9,6.4,10.7,7.6c2.1,0.3,4.4,0.4,6.8,0.2c2-0.1,4.2-0.6,6.6-1.3
		c2.4-0.8,4.6-2.1,6.7-4.1c3.6-2.9,6.8-6.8,9.6-11.7c2.9-4.9,5.5-10.1,7.8-15.5c0.9-2.2,1.8-4.3,2.7-6.5c1.1,4.1,2.3,7.9,3.8,11.5
		c1.8,4,4.2,7.6,7,10.8c2.8,3.2,6.4,5,10.8,5.4c2.3,0.1,3.8-0.1,4.7-0.5c2.2-0.6,4-1.4,5.7-2.5c1.6-1.1,3.1-2.2,4.5-3.3
		c0.1-0.5,0.3-0.8,0.5-0.9c0.2-0.2,0.4-0.4,0.6-0.6c1.9-2.1,3.7-4.7,5.4-7.7c0.9-1.5,1.8-3,2.9-4.6c2.2-4.4,4.2-8.9,6.1-13.5
		c0,0.1,0.1,0.2,0.1,0.3c1.2,4.4,2.9,8.4,5,12c2.1,3.6,4.6,6.5,7.5,8.9c2.9,2.3,6.4,3.7,10.6,4.1c7.4,0.7,13.9-1.3,19.5-6
		c5.6-4.7,10.4-10.6,14.4-17.6c4-7,7.2-14.5,9.8-22.3c2.6-7.8,4.6-14.6,6.1-20.3c3.9-1.3,7.7-3,11.2-5.1c-0.5,5.1-1.1,10.9-1.6,17.3
		c0,2.7,0.1,6,0.2,10c0.1,3.9,0.6,7.7,1.5,11.4c1.3,4.5,3.5,8.7,6.6,12.4c3.1,3.7,7.9,5.5,14.2,5.3l0.7-0.1
		c6.7-0.3,12.7-3.1,17.8-8.6c5.2-5.4,9.6-12,13.5-19.7l0.8,4.6c0.6,2.4,1.5,4.7,2.6,6.8c1.1,2.2,2.4,4.2,4.1,5.9
		c1,0.7,2.3,1.5,3.8,2.4c1.5,0.9,3.5,1.2,5.9,1c3.1-0.1,6.6-1.8,10.3-5.2c4.1-3.9,9-9.2,14.7-16c5.7-6.8,11.4-14.5,17.1-23.2
		c4.5-6.7,8.8-14,12.9-22.1c4.1-8.1,7.7-17,10.7-26.8c1.2-3.6,1.7-7.4,1.7-11.5c-0.1-3.1-1-6.6-2.7-10.4
		C641.1,230.2,638,226.8,633.3,223.8z M201.7,363.7c0.3-1.4,0.8-3.1,1.3-5c2-8,4-14.5,6.1-19.4c2.1-4.9,4.1-8.7,6-11.4
		c1.9-2.7,3.7-4.6,5.3-5.7c1.6-1.1,3-1.7,4.1-1.9c0.4-0.1,1.3,0.2,2.7,0.7c1.3,0.6,2.1,2.8,2.4,6.9c0.2,2.2-0.2,5.2-1,8.8
		c-0.8,3.7-2.4,7.5-4.6,11.5c-2.2,4-5.2,7.8-8.9,11.4c-3.7,3.6-8.4,6.3-14.2,8.3C201.1,366.5,201.3,365.1,201.7,363.7z M317.6,327
		l-0.5,3.1c-0.2,0.3-0.3,0.5-0.2,0.7c-2,9.4-4.2,17.7-6.8,25c-2.3,6.3-5,12-8.2,17.2c-3.2,5.2-6.9,7.8-11.2,7.9
		c-2.3-0.1-4-1.3-5.1-3.9c-0.9-2.3-1.3-6-1.3-11c0-5,1.3-12.5,3.9-22.4c2.6-9.7,5.1-17.2,7.6-22.4c2.5-5.2,4.8-9,7-11.4
		c2.2-2.4,4-3.8,5.5-4.2c1.5-0.4,2.6-0.5,3.3-0.4c0.5,0.1,1.1,0.4,2,0.8c0.9,0.4,1.7,1.4,2.6,2.9c0.8,1.5,1.4,3.7,1.7,6.5
		C318.2,318.3,318.1,322.1,317.6,327z M476.8,324.4c-1.8,5.8-3.9,10.9-6.3,15.4c-2.4,4.5-5,8.1-7.9,10.9c-2.9,2.8-5.9,4-8.9,3.6
		c-1.8-0.1-3.4-1.2-4.6-3.3c-1.2-1.6-2.2-4.1-3-7.6c-0.8-3.5-0.9-8.3-0.2-14.6c0.6-6.9,1.5-13.4,2.7-19.5c0.9-5.4,2.1-10.7,3.6-15.9
		c1.6-5.2,3.5-9.6,5.9-12.9c0.4,4.7,1.7,9.1,3.9,13.2c2.2,4.1,5.4,7.4,9.7,9.8c3.3,1.9,6.5,3,9.8,3.4
		C480.1,312.8,478.6,318.6,476.8,324.4z M483.5,294.3c-0.9-0.1-2.1-0.4-3.6-0.9c-1.5-0.5-2.8-1.4-4.2-2.5c-1.3-1.1-2.5-2.6-3.5-4.3
		c-1-1.7-1.6-4-1.8-6.6c-0.1-3.4,0.3-5.9,1.2-7.7c0.9-1.7,2.1-2.9,3.5-3.5c1.4-0.6,2.8-0.6,4.2-0.1c1.5,0.5,2.5,1.5,3.2,3
		C484.6,276.4,484.9,283.9,483.5,294.3z M766.2,259.1c-0.4-2.2-1.7-3.2-3.9-3c-2.7,0.2-4.6,1.1-5.6,2.7c-0.7,1-1.1,2-1.2,2.9
		c-0.7,2.6-1.8,6-3.3,10.3c-1.5,4.2-3.2,8.3-5.1,12.3c-1.9,4-4.1,7.3-6.6,10c-2.5,2.7-5,3.9-7.5,3.7c-2.3-0.3-3.8-1.8-4.4-4.7
		c-0.6-2.8-0.8-6.4-0.5-10.6c0.3-4.2,1-8.9,2.1-14c1.1-5.1,2.4-9.9,3.7-14.6c1.3-4.6,2.6-8.8,3.8-12.4c1.2-3.6,2.1-6.2,2.7-7.9
		c0.9-2.6,1.3-4.9,1.4-6.7c0-1.8-0.2-3.2-0.6-4.3c-0.5-1.3-1.2-2.4-2.3-3.3c-2.9-2.4-6-4.3-9.1-5.5c-3.2-1.2-5.9-2.1-8.3-2.6
		c-4.3-1.3-8.5,0-12.7,3.8c-4.2,3.8-8.3,9-12.4,15.6c-4,6.6-7.9,14-11.5,22.2c-3.6,8.2-6.9,16.3-9.8,24.3c0.5-3.7,1-7.2,1.5-10.5
		c0.6-3.3,1.1-6.5,1.7-9.8c0.2-1.4,0.6-3.2,1.1-5.3c0.5-2.1,1.1-4.1,1.6-6.1c0.6-1.9,1.1-4.1,1.7-6.6c0.6-2.5,1-4,1.4-4.5
		c0-0.2,0-0.4,0.1-0.5c0.1-0.1,0.1-0.3,0.1-0.5c1-3.1,1.4-5.8,1-8c-0.2-0.9-0.4-1.6-0.7-2.2c-0.3-0.6-0.7-1.1-0.9-1.5
		c-0.6-0.6-1-1-1.2-1.1c-3.2-2.6-6.5-4.5-10-5.5c-3.5-1.1-6.1-1.7-8-1.8c-1.4-0.2-2.5,0.2-3.3,1.3c-0.8,1.1-1.4,2.1-1.7,3
		c-0.3,1-0.4,1.5-0.4,1.8c-0.2,0.3-0.3,0.5-0.2,0.7c-0.5,2.6-1,5.3-1.6,8.1c-0.7,2.6-1.3,5.6-2,9c-0.6,3.4-1.2,6.9-1.7,10.6
		c-0.5,2.4-0.8,4.1-0.8,5.2c-0.3,2.1-0.7,4.7-1.2,7.7c-0.5,3-1,6.2-1.6,9.4c-0.4,3.9-0.9,8.3-1.3,13.1c-0.4,4.8-0.7,9.8-0.9,14.9
		c-0.2,5.1-0.3,10.2-0.4,15.3c0,5.1,0.2,9.7,0.8,14c-0.1,0.5,0,1.1,0.3,2c0.3,1.5,1.1,2.8,2.3,3.7c1.6,1.5,3.9,2.8,6.8,3.9
		c2.9,1.1,6.6,1.4,11.1,1.1c0.4-0.1,1-0.3,1.7-0.8c0.7-0.5,1.1-1.4,1-2.7c2.6-14.9,5.8-28.2,9.8-39.9c3.9-11.7,7.9-21.6,11.9-29.8
		c4.4-9.6,9.3-17.9,14.6-25l0.3-0.4c-1.4,7.3-2.8,15.4-4.2,24.3c-1.4,9-1.9,17.6-1.5,25.9c0.3,8.3,1.7,15.5,4,21.7
		c2.3,6.1,6.4,9.9,12.4,11.4c2.1,0.3,4.4,0.4,6.8,0.2c2-0.1,4.2-0.6,6.6-1.3c2.4-0.8,4.6-2,6.8-3.7c3.6-2.9,6.8-6.9,9.6-11.9
		c2.8-5,5.4-10.2,7.8-15.6c2.3-5.4,4.3-10.6,6.1-15.7c1.7-5.1,3-9.1,3.8-12.2C766.3,261.1,766.3,260,766.2,259.1z"/>
	<path d="M526.2,387.9l-7.9,6.5v49.2l7.9,6.5h23.1l8-6.5v-49.2l-8-6.5H526.2z M544.9,438.6h-14.2v-39.2h14.2V438.6z M427.4,387.9
		l-7.9,6.5v49.2l7.9,6.5h22.1l8.1-6.5v-10h-12.4v5h-13.3v-39.2h13.3v4.7h12.4v-9.6l-8.1-6.6H427.4z M505.7,417.3v-22.8l-7.9-6.5H468
		v62.2h12.4v-25.3h3.7l10.6,25.3H508l-10.7-25.5L505.7,417.3z M493.3,413.3h-12.9v-13.9h12.9V413.3z M623.4,387.9l-8,6.5v23.8l8,6.5
		h16.9v13.9h-12.5v-5h-12.4v10l8,6.5h21.4l7.9-6.5v-23.8l-7.9-6.5h-17v-13.9h12.5v4.7h12.4v-9.7l-7.9-6.5H623.4z M705.6,450.1h12.4
		v-62.2h-12.4V450.1z M728.5,387.9v11.5h12.3v50.7h12.4v-50.7h12.3v-11.5H728.5z M575.7,387.9l-8,6.5v23.8l8,6.5h16.9v13.9h-12.5v-5
		h-12.4v10l8,6.5h21.4l7.9-6.5v-23.8l-7.9-6.5h-17v-13.9h12.5v4.7h12.4v-9.7l-7.9-6.5H575.7z M663.1,450.1h12.4v-25.3h16.9v-11.5
		h-16.9v-13.9h19.7v-11.5h-32.1V450.1z"/>
</g>
</svg>
