<svg xmlns="http://www.w3.org/2000/svg" viewBox="0 0 459 459" fill="000000">
  <path d="M145.5 154.8a10 10 0 0 0 10 0 151.7 151.7 0 0 1 148 0 10 10 0 0 0 14.9-8.7v-41a63 63 0 0 0-63-63h-51.8a63 63 0 0 0-63 63v41a10 10 0 0 0 5 8.7zm15.1-49.7a43 43 0 0 1 43-43h51.8a43 43 0 0 1 43 43v25a172 172 0 0 0-137.8 0v-25z"/>
  <path d="M360.5 176.4V105C360.5 47 313.3 0 255.4 0h-51.8c-58 0-105.1 47.1-105.1 105v71.4a171.9 171.9 0 0 0 131 282.6 171.9 171.9 0 0 0 131-282.6zM229.5 439A151.8 151.8 0 0 1 116 186.7a10 10 0 0 0 2.5-6.6v-75c0-47 38.1-85.1 85-85.1h51.9c47 0 85 38.2 85 85v75c0 2.5 1 4.9 2.6 6.7A151.8 151.8 0 0 1 229.5 439z"/>
  <path d="M264.3 153.3a139 139 0 0 0-34.8-4.4 10 10 0 1 0 0 20 119 119 0 0 1 29.8 3.8 10 10 0 1 0 5-19.4zM302.4 169.6a10 10 0 1 0-10.5 17A118 118 0 0 1 348 287.4a10 10 0 1 0 20 0c0-48.2-24.5-92.3-65.6-117.8zM229.5 406c-13.6 0-27-2.3-39.7-6.8a10 10 0 0 0-6.7 18.8c14.9 5.3 30.5 8 46.4 8a10 10 0 0 0 0-20zM163.3 385.8a118.5 118.5 0 0 1-52.3-98.4 10 10 0 1 0-20 0c0 46.2 22.8 89.1 61 115a10 10 0 0 0 14-2.8 10 10 0 0 0-2.7-13.8z"/>
</svg>
